<?xml version="1.0" encoding="UTF-8"?>
<svg xmlns="http://www.w3.org/2000/svg" width="330" height="330" viewBox="0 0 330 330" shape-rendering="geometricPrecision">
<defs><linearGradient id="fg" gradientUnits="userSpaceOnUse" x1="397.4572887129104" y1="144.66262248364757" x2="0.0" y2="0.0"><stop offset="0.0%" stop-color="#1a0f3b"/><stop offset="100.0%" stop-color="#5b4bff"/></linearGradient></defs>
<g transform="translate(0.0 0.0)">
<circle cx="45.0" cy="45.0" r="4.5" fill="url(#fg)"/>
<circle cx="55.0" cy="45.0" r="4.5" fill="url(#fg)"/>
<circle cx="65.0" cy="45.0" r="4.5" fill="url(#fg)"/>
<circle cx="75.0" cy="45.0" r="4.5" fill="url(#fg)"/>
<circle cx="85.0" cy="45.0" r="4.5" fill="url(#fg)"/>
<circle cx="95.0" cy="45.0" r="4.5" fill="url(#fg)"/>
<circle cx="105.0" cy="45.0" r="4.5" fill="url(#fg)"/>
<circle cx="135.0" cy="45.0" r="4.5" fill="url(#fg)"/>
<circle cx="145.0" cy="45.0" r="4.5" fill="url(#fg)"/>
<circle cx="155.0" cy="45.0" r="4.5" fill="url(#fg)"/>
<circle cx="165.0" cy="45.0" r="4.5" fill="url(#fg)"/>
<circle cx="175.0" cy="45.0" r="4.5" fill="url(#fg)"/>
<circle cx="185.0" cy="45.0" r="4.5" fill="url(#fg)"/>
<circle cx="195.0" cy="45.0" r="4.5" fill="url(#fg)"/>
<circle cx="225.0" cy="45.0" r="4.5" fill="url(#fg)"/>
<circle cx="235.0" cy="45.0" r="4.5" fill="url(#fg)"/>
<circle cx="245.0" cy="45.0" r="4.5" fill="url(#fg)"/>
<circle cx="255.0" cy="45.0" r="4.5" fill="url(#fg)"/>
<circle cx="265.0" cy="45.0" r="4.5" fill="url(#fg)"/>
<circle cx="275.0" cy="45.0" r="4.5" fill="url(#fg)"/>
<circle cx="285.0" cy="45.0" r="4.5" fill="url(#fg)"/>
<circle cx="45.0" cy="55.0" r="4.5" fill="url(#fg)"/>
<circle cx="105.0" cy="55.0" r="4.5" fill="url(#fg)"/>
<circle cx="125.0" cy="55.0" r="4.5" fill="url(#fg)"/>
<circle cx="145.0" cy="55.0" r="4.5" fill="url(#fg)"/>
<circle cx="155.0" cy="55.0" r="4.5" fill="url(#fg)"/>
<circle cx="165.0" cy="55.0" r="4.5" fill="url(#fg)"/>
<circle cx="185.0" cy="55.0" r="4.5" fill="url(#fg)"/>
<circle cx="195.0" cy="55.0" r="4.5" fill="url(#fg)"/>
<circle cx="205.0" cy="55.0" r="4.5" fill="url(#fg)"/>
<circle cx="225.0" cy="55.0" r="4.5" fill="url(#fg)"/>
<circle cx="285.0" cy="55.0" r="4.5" fill="url(#fg)"/>
<circle cx="45.0" cy="65.0" r="4.5" fill="url(#fg)"/>
<circle cx="65.0" cy="65.0" r="4.5" fill="url(#fg)"/>
<circle cx="75.0" cy="65.0" r="4.5" fill="url(#fg)"/>
<circle cx="85.0" cy="65.0" r="4.5" fill="url(#fg)"/>
<circle cx="105.0" cy="65.0" r="4.5" fill="url(#fg)"/>
<circle cx="145.0" cy="65.0" r="4.5" fill="url(#fg)"/>
<circle cx="155.0" cy="65.0" r="4.5" fill="url(#fg)"/>
<circle cx="195.0" cy="65.0" r="4.5" fill="url(#fg)"/>
<circle cx="205.0" cy="65.0" r="4.5" fill="url(#fg)"/>
<circle cx="225.0" cy="65.0" r="4.5" fill="url(#fg)"/>
<circle cx="245.0" cy="65.0" r="4.5" fill="url(#fg)"/>
<circle cx="255.0" cy="65.0" r="4.5" fill="url(#fg)"/>
<circle cx="265.0" cy="65.0" r="4.5" fill="url(#fg)"/>
<circle cx="285.0" cy="65.0" r="4.5" fill="url(#fg)"/>
<circle cx="45.0" cy="75.0" r="4.5" fill="url(#fg)"/>
<circle cx="65.0" cy="75.0" r="4.5" fill="url(#fg)"/>
<circle cx="75.0" cy="75.0" r="4.5" fill="url(#fg)"/>
<circle cx="85.0" cy="75.0" r="4.5" fill="url(#fg)"/>
<circle cx="105.0" cy="75.0" r="4.5" fill="url(#fg)"/>
<circle cx="155.0" cy="75.0" r="4.5" fill="url(#fg)"/>
<circle cx="165.0" cy="75.0" r="4.5" fill="url(#fg)"/>
<circle cx="185.0" cy="75.0" r="4.5" fill="url(#fg)"/>
<circle cx="195.0" cy="75.0" r="4.5" fill="url(#fg)"/>
<circle cx="225.0" cy="75.0" r="4.5" fill="url(#fg)"/>
<circle cx="245.0" cy="75.0" r="4.5" fill="url(#fg)"/>
<circle cx="255.0" cy="75.0" r="4.5" fill="url(#fg)"/>
<circle cx="265.0" cy="75.0" r="4.5" fill="url(#fg)"/>
<circle cx="285.0" cy="75.0" r="4.5" fill="url(#fg)"/>
<circle cx="45.0" cy="85.0" r="4.5" fill="url(#fg)"/>
<circle cx="65.0" cy="85.0" r="4.5" fill="url(#fg)"/>
<circle cx="75.0" cy="85.0" r="4.5" fill="url(#fg)"/>
<circle cx="85.0" cy="85.0" r="4.5" fill="url(#fg)"/>
<circle cx="105.0" cy="85.0" r="4.5" fill="url(#fg)"/>
<circle cx="125.0" cy="85.0" r="4.5" fill="url(#fg)"/>
<circle cx="175.0" cy="85.0" r="4.5" fill="url(#fg)"/>
<circle cx="185.0" cy="85.0" r="4.5" fill="url(#fg)"/>
<circle cx="195.0" cy="85.0" r="4.5" fill="url(#fg)"/>
<circle cx="225.0" cy="85.0" r="4.5" fill="url(#fg)"/>
<circle cx="245.0" cy="85.0" r="4.5" fill="url(#fg)"/>
<circle cx="255.0" cy="85.0" r="4.5" fill="url(#fg)"/>
<circle cx="265.0" cy="85.0" r="4.5" fill="url(#fg)"/>
<circle cx="285.0" cy="85.0" r="4.5" fill="url(#fg)"/>
<circle cx="45.0" cy="95.0" r="4.5" fill="url(#fg)"/>
<circle cx="105.0" cy="95.0" r="4.5" fill="url(#fg)"/>
<circle cx="165.0" cy="95.0" r="4.5" fill="url(#fg)"/>
<circle cx="175.0" cy="95.0" r="4.5" fill="url(#fg)"/>
<circle cx="185.0" cy="95.0" r="4.5" fill="url(#fg)"/>
<circle cx="195.0" cy="95.0" r="4.5" fill="url(#fg)"/>
<circle cx="225.0" cy="95.0" r="4.5" fill="url(#fg)"/>
<circle cx="285.0" cy="95.0" r="4.5" fill="url(#fg)"/>
<circle cx="45.0" cy="105.0" r="4.5" fill="url(#fg)"/>
<circle cx="55.0" cy="105.0" r="4.5" fill="url(#fg)"/>
<circle cx="65.0" cy="105.0" r="4.5" fill="url(#fg)"/>
<circle cx="75.0" cy="105.0" r="4.5" fill="url(#fg)"/>
<circle cx="85.0" cy="105.0" r="4.5" fill="url(#fg)"/>
<circle cx="95.0" cy="105.0" r="4.5" fill="url(#fg)"/>
<circle cx="105.0" cy="105.0" r="4.5" fill="url(#fg)"/>
<circle cx="125.0" cy="105.0" r="4.5" fill="url(#fg)"/>
<circle cx="145.0" cy="105.0" r="4.5" fill="url(#fg)"/>
<circle cx="165.0" cy="105.0" r="4.5" fill="url(#fg)"/>
<circle cx="185.0" cy="105.0" r="4.5" fill="url(#fg)"/>
<circle cx="205.0" cy="105.0" r="4.5" fill="url(#fg)"/>
<circle cx="225.0" cy="105.0" r="4.5" fill="url(#fg)"/>
<circle cx="235.0" cy="105.0" r="4.5" fill="url(#fg)"/>
<circle cx="245.0" cy="105.0" r="4.5" fill="url(#fg)"/>
<circle cx="255.0" cy="105.0" r="4.5" fill="url(#fg)"/>
<circle cx="265.0" cy="105.0" r="4.5" fill="url(#fg)"/>
<circle cx="275.0" cy="105.0" r="4.5" fill="url(#fg)"/>
<circle cx="285.0" cy="105.0" r="4.5" fill="url(#fg)"/>
<circle cx="155.0" cy="115.0" r="4.5" fill="url(#fg)"/>
<circle cx="165.0" cy="115.0" r="4.5" fill="url(#fg)"/>
<circle cx="175.0" cy="115.0" r="4.5" fill="url(#fg)"/>
<circle cx="185.0" cy="115.0" r="4.5" fill="url(#fg)"/>
<circle cx="205.0" cy="115.0" r="4.5" fill="url(#fg)"/>
<circle cx="45.0" cy="125.0" r="4.5" fill="url(#fg)"/>
<circle cx="65.0" cy="125.0" r="4.5" fill="url(#fg)"/>
<circle cx="85.0" cy="125.0" r="4.5" fill="url(#fg)"/>
<circle cx="105.0" cy="125.0" r="4.5" fill="url(#fg)"/>
<circle cx="135.0" cy="125.0" r="4.5" fill="url(#fg)"/>
<circle cx="145.0" cy="125.0" r="4.5" fill="url(#fg)"/>
<circle cx="165.0" cy="125.0" r="4.5" fill="url(#fg)"/>
<circle cx="185.0" cy="125.0" r="4.5" fill="url(#fg)"/>
<circle cx="195.0" cy="125.0" r="4.5" fill="url(#fg)"/>
<circle cx="205.0" cy="125.0" r="4.5" fill="url(#fg)"/>
<circle cx="245.0" cy="125.0" r="4.5" fill="url(#fg)"/>
<circle cx="275.0" cy="125.0" r="4.5" fill="url(#fg)"/>
<circle cx="45.0" cy="135.0" r="4.5" fill="url(#fg)"/>
<circle cx="85.0" cy="135.0" r="4.5" fill="url(#fg)"/>
<circle cx="115.0" cy="135.0" r="4.5" fill="url(#fg)"/>
<circle cx="125.0" cy="135.0" r="4.5" fill="url(#fg)"/>
<circle cx="145.0" cy="135.0" r="4.5" fill="url(#fg)"/>
<circle cx="165.0" cy="135.0" r="4.5" fill="url(#fg)"/>
<circle cx="225.0" cy="135.0" r="4.5" fill="url(#fg)"/>
<circle cx="285.0" cy="135.0" r="4.5" fill="url(#fg)"/>
<circle cx="45.0" cy="145.0" r="4.5" fill="url(#fg)"/>
<circle cx="55.0" cy="145.0" r="4.5" fill="url(#fg)"/>
<circle cx="105.0" cy="145.0" r="4.5" fill="url(#fg)"/>
<circle cx="145.0" cy="145.0" r="4.5" fill="url(#fg)"/>
<circle cx="175.0" cy="145.0" r="4.5" fill="url(#fg)"/>
<circle cx="235.0" cy="145.0" r="4.5" fill="url(#fg)"/>
<circle cx="245.0" cy="145.0" r="4.5" fill="url(#fg)"/>
<circle cx="265.0" cy="145.0" r="4.5" fill="url(#fg)"/>
<circle cx="275.0" cy="145.0" r="4.5" fill="url(#fg)"/>
<circle cx="285.0" cy="145.0" r="4.5" fill="url(#fg)"/>
<circle cx="75.0" cy="155.0" r="4.5" fill="url(#fg)"/>
<circle cx="85.0" cy="155.0" r="4.5" fill="url(#fg)"/>
<circle cx="115.0" cy="155.0" r="4.5" fill="url(#fg)"/>
<circle cx="125.0" cy="155.0" r="4.5" fill="url(#fg)"/>
<circle cx="145.0" cy="155.0" r="4.5" fill="url(#fg)"/>
<circle cx="165.0" cy="155.0" r="4.5" fill="url(#fg)"/>
<circle cx="195.0" cy="155.0" r="4.5" fill="url(#fg)"/>
<circle cx="205.0" cy="155.0" r="4.5" fill="url(#fg)"/>
<circle cx="215.0" cy="155.0" r="4.5" fill="url(#fg)"/>
<circle cx="275.0" cy="155.0" r="4.5" fill="url(#fg)"/>
<circle cx="55.0" cy="165.0" r="4.5" fill="url(#fg)"/>
<circle cx="85.0" cy="165.0" r="4.5" fill="url(#fg)"/>
<circle cx="105.0" cy="165.0" r="4.5" fill="url(#fg)"/>
<circle cx="125.0" cy="165.0" r="4.5" fill="url(#fg)"/>
<circle cx="135.0" cy="165.0" r="4.5" fill="url(#fg)"/>
<circle cx="145.0" cy="165.0" r="4.5" fill="url(#fg)"/>
<circle cx="155.0" cy="165.0" r="4.5" fill="url(#fg)"/>
<circle cx="165.0" cy="165.0" r="4.5" fill="url(#fg)"/>
<circle cx="205.0" cy="165.0" r="4.5" fill="url(#fg)"/>
<circle cx="215.0" cy="165.0" r="4.5" fill="url(#fg)"/>
<circle cx="225.0" cy="165.0" r="4.5" fill="url(#fg)"/>
<circle cx="255.0" cy="165.0" r="4.5" fill="url(#fg)"/>
<circle cx="275.0" cy="165.0" r="4.5" fill="url(#fg)"/>
<circle cx="285.0" cy="165.0" r="4.5" fill="url(#fg)"/>
<circle cx="65.0" cy="175.0" r="4.5" fill="url(#fg)"/>
<circle cx="75.0" cy="175.0" r="4.5" fill="url(#fg)"/>
<circle cx="85.0" cy="175.0" r="4.5" fill="url(#fg)"/>
<circle cx="95.0" cy="175.0" r="4.5" fill="url(#fg)"/>
<circle cx="115.0" cy="175.0" r="4.5" fill="url(#fg)"/>
<circle cx="125.0" cy="175.0" r="4.5" fill="url(#fg)"/>
<circle cx="145.0" cy="175.0" r="4.5" fill="url(#fg)"/>
<circle cx="155.0" cy="175.0" r="4.5" fill="url(#fg)"/>
<circle cx="165.0" cy="175.0" r="4.5" fill="url(#fg)"/>
<circle cx="175.0" cy="175.0" r="4.5" fill="url(#fg)"/>
<circle cx="205.0" cy="175.0" r="4.5" fill="url(#fg)"/>
<circle cx="215.0" cy="175.0" r="4.5" fill="url(#fg)"/>
<circle cx="225.0" cy="175.0" r="4.5" fill="url(#fg)"/>
<circle cx="255.0" cy="175.0" r="4.5" fill="url(#fg)"/>
<circle cx="285.0" cy="175.0" r="4.5" fill="url(#fg)"/>
<circle cx="45.0" cy="185.0" r="4.5" fill="url(#fg)"/>
<circle cx="65.0" cy="185.0" r="4.5" fill="url(#fg)"/>
<circle cx="75.0" cy="185.0" r="4.5" fill="url(#fg)"/>
<circle cx="85.0" cy="185.0" r="4.5" fill="url(#fg)"/>
<circle cx="105.0" cy="185.0" r="4.5" fill="url(#fg)"/>
<circle cx="115.0" cy="185.0" r="4.5" fill="url(#fg)"/>
<circle cx="125.0" cy="185.0" r="4.5" fill="url(#fg)"/>
<circle cx="135.0" cy="185.0" r="4.5" fill="url(#fg)"/>
<circle cx="155.0" cy="185.0" r="4.5" fill="url(#fg)"/>
<circle cx="165.0" cy="185.0" r="4.5" fill="url(#fg)"/>
<circle cx="185.0" cy="185.0" r="4.5" fill="url(#fg)"/>
<circle cx="205.0" cy="185.0" r="4.5" fill="url(#fg)"/>
<circle cx="225.0" cy="185.0" r="4.5" fill="url(#fg)"/>
<circle cx="235.0" cy="185.0" r="4.5" fill="url(#fg)"/>
<circle cx="265.0" cy="185.0" r="4.5" fill="url(#fg)"/>
<circle cx="275.0" cy="185.0" r="4.5" fill="url(#fg)"/>
<circle cx="285.0" cy="185.0" r="4.5" fill="url(#fg)"/>
<circle cx="55.0" cy="195.0" r="4.5" fill="url(#fg)"/>
<circle cx="75.0" cy="195.0" r="4.5" fill="url(#fg)"/>
<circle cx="95.0" cy="195.0" r="4.5" fill="url(#fg)"/>
<circle cx="165.0" cy="195.0" r="4.5" fill="url(#fg)"/>
<circle cx="175.0" cy="195.0" r="4.5" fill="url(#fg)"/>
<circle cx="185.0" cy="195.0" r="4.5" fill="url(#fg)"/>
<circle cx="195.0" cy="195.0" r="4.5" fill="url(#fg)"/>
<circle cx="205.0" cy="195.0" r="4.5" fill="url(#fg)"/>
<circle cx="245.0" cy="195.0" r="4.5" fill="url(#fg)"/>
<circle cx="275.0" cy="195.0" r="4.5" fill="url(#fg)"/>
<circle cx="45.0" cy="205.0" r="4.5" fill="url(#fg)"/>
<circle cx="75.0" cy="205.0" r="4.5" fill="url(#fg)"/>
<circle cx="85.0" cy="205.0" r="4.5" fill="url(#fg)"/>
<circle cx="95.0" cy="205.0" r="4.5" fill="url(#fg)"/>
<circle cx="105.0" cy="205.0" r="4.5" fill="url(#fg)"/>
<circle cx="155.0" cy="205.0" r="4.5" fill="url(#fg)"/>
<circle cx="185.0" cy="205.0" r="4.5" fill="url(#fg)"/>
<circle cx="195.0" cy="205.0" r="4.5" fill="url(#fg)"/>
<circle cx="205.0" cy="205.0" r="4.5" fill="url(#fg)"/>
<circle cx="215.0" cy="205.0" r="4.5" fill="url(#fg)"/>
<circle cx="225.0" cy="205.0" r="4.5" fill="url(#fg)"/>
<circle cx="235.0" cy="205.0" r="4.5" fill="url(#fg)"/>
<circle cx="245.0" cy="205.0" r="4.5" fill="url(#fg)"/>
<circle cx="255.0" cy="205.0" r="4.5" fill="url(#fg)"/>
<circle cx="125.0" cy="215.0" r="4.5" fill="url(#fg)"/>
<circle cx="135.0" cy="215.0" r="4.5" fill="url(#fg)"/>
<circle cx="155.0" cy="215.0" r="4.5" fill="url(#fg)"/>
<circle cx="185.0" cy="215.0" r="4.5" fill="url(#fg)"/>
<circle cx="195.0" cy="215.0" r="4.5" fill="url(#fg)"/>
<circle cx="205.0" cy="215.0" r="4.5" fill="url(#fg)"/>
<circle cx="245.0" cy="215.0" r="4.5" fill="url(#fg)"/>
<circle cx="255.0" cy="215.0" r="4.5" fill="url(#fg)"/>
<circle cx="275.0" cy="215.0" r="4.5" fill="url(#fg)"/>
<circle cx="285.0" cy="215.0" r="4.5" fill="url(#fg)"/>
<circle cx="45.0" cy="225.0" r="4.5" fill="url(#fg)"/>
<circle cx="55.0" cy="225.0" r="4.5" fill="url(#fg)"/>
<circle cx="65.0" cy="225.0" r="4.5" fill="url(#fg)"/>
<circle cx="75.0" cy="225.0" r="4.5" fill="url(#fg)"/>
<circle cx="85.0" cy="225.0" r="4.5" fill="url(#fg)"/>
<circle cx="95.0" cy="225.0" r="4.5" fill="url(#fg)"/>
<circle cx="105.0" cy="225.0" r="4.5" fill="url(#fg)"/>
<circle cx="135.0" cy="225.0" r="4.5" fill="url(#fg)"/>
<circle cx="145.0" cy="225.0" r="4.5" fill="url(#fg)"/>
<circle cx="175.0" cy="225.0" r="4.5" fill="url(#fg)"/>
<circle cx="195.0" cy="225.0" r="4.5" fill="url(#fg)"/>
<circle cx="205.0" cy="225.0" r="4.5" fill="url(#fg)"/>
<circle cx="225.0" cy="225.0" r="4.5" fill="url(#fg)"/>
<circle cx="245.0" cy="225.0" r="4.5" fill="url(#fg)"/>
<circle cx="255.0" cy="225.0" r="4.5" fill="url(#fg)"/>
<circle cx="275.0" cy="225.0" r="4.5" fill="url(#fg)"/>
<circle cx="285.0" cy="225.0" r="4.5" fill="url(#fg)"/>
<circle cx="45.0" cy="235.0" r="4.5" fill="url(#fg)"/>
<circle cx="105.0" cy="235.0" r="4.5" fill="url(#fg)"/>
<circle cx="135.0" cy="235.0" r="4.5" fill="url(#fg)"/>
<circle cx="155.0" cy="235.0" r="4.5" fill="url(#fg)"/>
<circle cx="205.0" cy="235.0" r="4.5" fill="url(#fg)"/>
<circle cx="245.0" cy="235.0" r="4.5" fill="url(#fg)"/>
<circle cx="255.0" cy="235.0" r="4.5" fill="url(#fg)"/>
<circle cx="285.0" cy="235.0" r="4.5" fill="url(#fg)"/>
<circle cx="45.0" cy="245.0" r="4.5" fill="url(#fg)"/>
<circle cx="65.0" cy="245.0" r="4.5" fill="url(#fg)"/>
<circle cx="75.0" cy="245.0" r="4.5" fill="url(#fg)"/>
<circle cx="85.0" cy="245.0" r="4.5" fill="url(#fg)"/>
<circle cx="105.0" cy="245.0" r="4.5" fill="url(#fg)"/>
<circle cx="125.0" cy="245.0" r="4.5" fill="url(#fg)"/>
<circle cx="165.0" cy="245.0" r="4.5" fill="url(#fg)"/>
<circle cx="205.0" cy="245.0" r="4.5" fill="url(#fg)"/>
<circle cx="215.0" cy="245.0" r="4.5" fill="url(#fg)"/>
<circle cx="225.0" cy="245.0" r="4.5" fill="url(#fg)"/>
<circle cx="235.0" cy="245.0" r="4.5" fill="url(#fg)"/>
<circle cx="245.0" cy="245.0" r="4.5" fill="url(#fg)"/>
<circle cx="255.0" cy="245.0" r="4.5" fill="url(#fg)"/>
<circle cx="285.0" cy="245.0" r="4.5" fill="url(#fg)"/>
<circle cx="45.0" cy="255.0" r="4.5" fill="url(#fg)"/>
<circle cx="65.0" cy="255.0" r="4.5" fill="url(#fg)"/>
<circle cx="75.0" cy="255.0" r="4.5" fill="url(#fg)"/>
<circle cx="85.0" cy="255.0" r="4.5" fill="url(#fg)"/>
<circle cx="105.0" cy="255.0" r="4.5" fill="url(#fg)"/>
<circle cx="155.0" cy="255.0" r="4.5" fill="url(#fg)"/>
<circle cx="165.0" cy="255.0" r="4.5" fill="url(#fg)"/>
<circle cx="175.0" cy="255.0" r="4.5" fill="url(#fg)"/>
<circle cx="195.0" cy="255.0" r="4.5" fill="url(#fg)"/>
<circle cx="235.0" cy="255.0" r="4.5" fill="url(#fg)"/>
<circle cx="245.0" cy="255.0" r="4.5" fill="url(#fg)"/>
<circle cx="255.0" cy="255.0" r="4.5" fill="url(#fg)"/>
<circle cx="265.0" cy="255.0" r="4.5" fill="url(#fg)"/>
<circle cx="45.0" cy="265.0" r="4.5" fill="url(#fg)"/>
<circle cx="65.0" cy="265.0" r="4.5" fill="url(#fg)"/>
<circle cx="75.0" cy="265.0" r="4.5" fill="url(#fg)"/>
<circle cx="85.0" cy="265.0" r="4.5" fill="url(#fg)"/>
<circle cx="105.0" cy="265.0" r="4.5" fill="url(#fg)"/>
<circle cx="125.0" cy="265.0" r="4.5" fill="url(#fg)"/>
<circle cx="155.0" cy="265.0" r="4.5" fill="url(#fg)"/>
<circle cx="165.0" cy="265.0" r="4.5" fill="url(#fg)"/>
<circle cx="185.0" cy="265.0" r="4.5" fill="url(#fg)"/>
<circle cx="205.0" cy="265.0" r="4.5" fill="url(#fg)"/>
<circle cx="245.0" cy="265.0" r="4.5" fill="url(#fg)"/>
<circle cx="285.0" cy="265.0" r="4.5" fill="url(#fg)"/>
<circle cx="45.0" cy="275.0" r="4.5" fill="url(#fg)"/>
<circle cx="105.0" cy="275.0" r="4.5" fill="url(#fg)"/>
<circle cx="165.0" cy="275.0" r="4.5" fill="url(#fg)"/>
<circle cx="175.0" cy="275.0" r="4.5" fill="url(#fg)"/>
<circle cx="185.0" cy="275.0" r="4.5" fill="url(#fg)"/>
<circle cx="205.0" cy="275.0" r="4.5" fill="url(#fg)"/>
<circle cx="225.0" cy="275.0" r="4.5" fill="url(#fg)"/>
<circle cx="245.0" cy="275.0" r="4.5" fill="url(#fg)"/>
<circle cx="255.0" cy="275.0" r="4.5" fill="url(#fg)"/>
<circle cx="275.0" cy="275.0" r="4.5" fill="url(#fg)"/>
<circle cx="45.0" cy="285.0" r="4.5" fill="url(#fg)"/>
<circle cx="55.0" cy="285.0" r="4.5" fill="url(#fg)"/>
<circle cx="65.0" cy="285.0" r="4.5" fill="url(#fg)"/>
<circle cx="75.0" cy="285.0" r="4.5" fill="url(#fg)"/>
<circle cx="85.0" cy="285.0" r="4.5" fill="url(#fg)"/>
<circle cx="95.0" cy="285.0" r="4.5" fill="url(#fg)"/>
<circle cx="105.0" cy="285.0" r="4.5" fill="url(#fg)"/>
<circle cx="125.0" cy="285.0" r="4.5" fill="url(#fg)"/>
<circle cx="145.0" cy="285.0" r="4.5" fill="url(#fg)"/>
<circle cx="155.0" cy="285.0" r="4.5" fill="url(#fg)"/>
<circle cx="185.0" cy="285.0" r="4.5" fill="url(#fg)"/>
<circle cx="195.0" cy="285.0" r="4.5" fill="url(#fg)"/>
<circle cx="205.0" cy="285.0" r="4.5" fill="url(#fg)"/>
<circle cx="215.0" cy="285.0" r="4.5" fill="url(#fg)"/>
<circle cx="225.0" cy="285.0" r="4.5" fill="url(#fg)"/>
<circle cx="235.0" cy="285.0" r="4.5" fill="url(#fg)"/>
<circle cx="275.0" cy="285.0" r="4.5" fill="url(#fg)"/>
<circle cx="285.0" cy="285.0" r="4.5" fill="url(#fg)"/>
</g>
</svg>